<svg xmlns="http://www.w3.org/2000/svg" xmlns:xlink="http://www.w3.org/1999/xlink" width="16" height="16" viewBox="0 0 16 16"><defs><style>.a{fill:#fff;stroke:#707070;}.b{clip-path:url(#a);}</style><clipPath id="a"><rect class="a" width="16" height="16" transform="translate(-0.407 0.498)"/></clipPath></defs><g class="b" transform="translate(0.407 -0.498)"><g transform="translate(0.67 0.498)"><path d="M15.726,4.869a2.435,2.435,0,1,1,2.435-2.435A2.438,2.438,0,0,1,15.726,4.869Zm0-3.9a1.461,1.461,0,1,0,1.461,1.461A1.463,1.463,0,0,0,15.726.974Zm0,0" transform="translate(-3.878)"/><path d="M15.726,19.994a2.435,2.435,0,1,1,2.435-2.435A2.438,2.438,0,0,1,15.726,19.994Zm0-3.9a1.461,1.461,0,1,0,1.461,1.461A1.463,1.463,0,0,0,15.726,16.1Zm0,0" transform="translate(-3.878 -4.412)"/><path d="M2.435,12.432A2.435,2.435,0,1,1,4.869,10,2.438,2.438,0,0,1,2.435,12.432Zm0-3.9A1.461,1.461,0,1,0,3.9,10,1.463,1.463,0,0,0,2.435,8.536Zm0,0" transform="translate(0 -2.206)"/><path d="M5.63,8.515a.487.487,0,0,1-.242-.91l6.024-3.435a.487.487,0,0,1,.482.846L5.87,8.451a.488.488,0,0,1-.24.064Zm0,0" transform="translate(-1.5 -1.198)"/><path d="M11.654,16.077a.483.483,0,0,1-.24-.064L5.39,12.578a.487.487,0,0,1,.482-.846L11.9,15.167a.487.487,0,0,1-.241.91Zm0,0" transform="translate(-1.501 -3.404)"/></g></g></svg>