<svg xmlns="http://www.w3.org/2000/svg" xmlns:xlink="http://www.w3.org/1999/xlink" width="16" height="16" viewBox="0 0 16 16"><defs><style>.a{fill:#fff;stroke:#707070;}.b{clip-path:url(#a);}.c{fill:none;}.d,.e{stroke:none;}</style><clipPath id="a"><rect class="a" width="16" height="16" transform="translate(-0.418 0.498)"/></clipPath></defs><g class="b" transform="translate(0.418 -0.498)"><g class="c" transform="translate(-0.28 0.592)"><path class="d" d="M12.665,0H4.022A1.32,1.32,0,0,0,2.7,1.264V14.05a.98.98,0,0,0,.167.568A.647.647,0,0,0,3.4,14.9a.964.964,0,0,0,.612-.258l3.867-3.283a.766.766,0,0,1,.939,0l3.854,3.282a.93.93,0,0,0,.6.259c.339,0,.67-.262.67-.846V1.264A1.278,1.278,0,0,0,12.665,0Z"/><path class="e" d="M 4.021762847900391 1.199995994567871 C 3.969090461730957 1.199995994567871 3.913385391235352 1.246515274047852 3.899812698364258 1.274157524108887 L 3.899812698364258 13.15946865081787 L 7.100083351135254 10.44229507446289 C 7.438302993774414 10.15338516235352 7.881783485412598 9.99427604675293 8.348823547363281 9.99427604675293 C 8.815523147583008 9.99427604675293 9.258933067321777 10.15344619750977 9.596173286437988 10.44144630432129 L 12.73967361450195 13.11874294281006 L 12.73967361450195 1.264485359191895 C 12.73967361450195 1.242975234985352 12.70721340179443 1.199995994567871 12.66458320617676 1.199995994567871 L 4.021762847900391 1.199995994567871 M 4.021762847900391 -4.76837158203125e-06 L 12.66458320617676 -4.76837158203125e-06 C 13.36848258972168 -4.76837158203125e-06 13.93967342376709 0.5790653228759766 13.93967342376709 1.264485359191895 L 13.93967342376709 14.04989528656006 C 13.93967342376709 14.634446144104 13.60908317565918 14.89604568481445 13.26992321014404 14.89604568481445 C 13.06936264038086 14.89604568481445 12.87020301818848 14.80655574798584 12.67196273803711 14.63732528686523 L 8.818093299865723 11.35500526428223 C 8.698312759399414 11.25271606445313 8.52711296081543 11.19427585601807 8.348823547363281 11.19427585601807 C 8.170463562011719 11.19427585601807 7.998912811279297 11.25271606445313 7.87949275970459 11.35472583770752 L 4.012693405151367 14.63781547546387 C 3.815153121948242 14.80655574798584 3.601243019104004 14.89597606658936 3.400333404541016 14.89597606658936 C 3.400242805480957 14.89597606658936 3.400172233581543 14.89597606658936 3.400081634521484 14.89597606658936 C 3.187684059143066 14.89597606658936 2.98960018157959 14.79475021362305 2.866582870483398 14.61821556091309 C 2.763663291931152 14.47048568725586 2.699812889099121 14.27926540374756 2.699812889099121 14.04982566833496 L 2.699812889099121 1.264485359191895 C 2.699812889099121 0.5790653228759766 3.317863464355469 -4.76837158203125e-06 4.021762847900391 -4.76837158203125e-06 Z"/></g></g></svg>