<svg xmlns="http://www.w3.org/2000/svg" width="24" height="50" viewBox="0 0 24 50"><defs><style>.a{fill:#fff;}</style></defs><g transform="translate(23) rotate(90)"><g transform="translate(0 132)"><path class="a" d="M49.427,142.63l0,0L39.22,132.564a1.966,1.966,0,0,0-2.762.007,1.923,1.923,0,0,0,.007,2.737l6.852,6.757H1.953a1.936,1.936,0,1,0,0,3.871H43.316l-6.852,6.757a1.923,1.923,0,0,0-.007,2.737,1.966,1.966,0,0,0,2.762.007l10.205-10.065,0,0A1.925,1.925,0,0,0,49.427,142.63Z" transform="translate(0 -265)"/></g></g></svg>